<mxfile host="app.diagrams.net" modified="2024-07-08T16:37:50.252Z" agent="Mozilla/5.0 (Windows NT 10.0; Win64; x64) AppleWebKit/537.36 (KHTML, like Gecko) Chrome/126.0.0.0 Safari/537.36" etag="-lE9CbHknrCQDp38WbZc" version="24.6.4" type="github">
  <diagram name="Page-1" id="gXbyF3qXyhQlLYsCx0Ya">
    <mxGraphModel dx="750" dy="398" grid="1" gridSize="10" guides="1" tooltips="1" connect="1" arrows="1" fold="1" page="1" pageScale="1" pageWidth="850" pageHeight="1100" math="0" shadow="0">
      <root>
        <mxCell id="0" />
        <mxCell id="1" parent="0" />
        <mxCell id="61okysOQSv1O7eJIanx_-3" value="" style="edgeStyle=orthogonalEdgeStyle;rounded=0;orthogonalLoop=1;jettySize=auto;html=1;" edge="1" parent="1" source="61okysOQSv1O7eJIanx_-1" target="61okysOQSv1O7eJIanx_-2">
          <mxGeometry relative="1" as="geometry" />
        </mxCell>
        <mxCell id="61okysOQSv1O7eJIanx_-1" value="Input Voice" style="ellipse;shape=cloud;whiteSpace=wrap;html=1;" vertex="1" parent="1">
          <mxGeometry x="280" y="50" width="120" height="80" as="geometry" />
        </mxCell>
        <mxCell id="61okysOQSv1O7eJIanx_-8" value="" style="edgeStyle=orthogonalEdgeStyle;rounded=0;orthogonalLoop=1;jettySize=auto;html=1;" edge="1" parent="1" source="61okysOQSv1O7eJIanx_-2" target="61okysOQSv1O7eJIanx_-5">
          <mxGeometry relative="1" as="geometry" />
        </mxCell>
        <mxCell id="61okysOQSv1O7eJIanx_-14" value="Text" style="edgeLabel;html=1;align=center;verticalAlign=middle;resizable=0;points=[];" vertex="1" connectable="0" parent="61okysOQSv1O7eJIanx_-8">
          <mxGeometry x="0.016" y="10" relative="1" as="geometry">
            <mxPoint as="offset" />
          </mxGeometry>
        </mxCell>
        <mxCell id="61okysOQSv1O7eJIanx_-2" value="Automatic Speech Recognition&lt;div&gt;(Whisper)&lt;/div&gt;" style="shape=process;whiteSpace=wrap;html=1;backgroundOutline=1;" vertex="1" parent="1">
          <mxGeometry x="60" y="220" width="120" height="60" as="geometry" />
        </mxCell>
        <mxCell id="61okysOQSv1O7eJIanx_-10" value="" style="edgeStyle=orthogonalEdgeStyle;rounded=0;orthogonalLoop=1;jettySize=auto;html=1;" edge="1" parent="1" source="61okysOQSv1O7eJIanx_-5" target="61okysOQSv1O7eJIanx_-9">
          <mxGeometry relative="1" as="geometry" />
        </mxCell>
        <mxCell id="61okysOQSv1O7eJIanx_-5" value="ChatGPT Response" style="ellipse;whiteSpace=wrap;html=1;" vertex="1" parent="1">
          <mxGeometry x="280" y="210" width="120" height="80" as="geometry" />
        </mxCell>
        <mxCell id="61okysOQSv1O7eJIanx_-9" value="Text to Speech" style="shape=process;whiteSpace=wrap;html=1;backgroundOutline=1;" vertex="1" parent="1">
          <mxGeometry x="480" y="220" width="120" height="60" as="geometry" />
        </mxCell>
        <mxCell id="61okysOQSv1O7eJIanx_-12" style="edgeStyle=orthogonalEdgeStyle;rounded=0;orthogonalLoop=1;jettySize=auto;html=1;entryX=0.875;entryY=0.5;entryDx=0;entryDy=0;entryPerimeter=0;" edge="1" parent="1" source="61okysOQSv1O7eJIanx_-9" target="61okysOQSv1O7eJIanx_-1">
          <mxGeometry relative="1" as="geometry">
            <Array as="points">
              <mxPoint x="550" y="90" />
            </Array>
          </mxGeometry>
        </mxCell>
        <mxCell id="61okysOQSv1O7eJIanx_-13" value="Prompt: You are a friendly English Language trainer. Keep talking so that I can learn english better.&lt;div&gt;Give practices for pronounciation, make me talk more.&amp;nbsp;&amp;nbsp;&lt;/div&gt;" style="text;html=1;align=center;verticalAlign=middle;resizable=0;points=[];autosize=1;strokeColor=none;fillColor=none;" vertex="1" parent="1">
          <mxGeometry x="65" y="303" width="550" height="40" as="geometry" />
        </mxCell>
        <mxCell id="61okysOQSv1O7eJIanx_-15" value="Voice command" style="text;html=1;align=center;verticalAlign=middle;resizable=0;points=[];autosize=1;strokeColor=none;fillColor=none;" vertex="1" parent="1">
          <mxGeometry x="120" y="60" width="110" height="30" as="geometry" />
        </mxCell>
        <mxCell id="61okysOQSv1O7eJIanx_-16" value="Text" style="text;html=1;align=center;verticalAlign=middle;resizable=0;points=[];autosize=1;strokeColor=none;fillColor=none;" vertex="1" parent="1">
          <mxGeometry x="420" y="210" width="50" height="30" as="geometry" />
        </mxCell>
      </root>
    </mxGraphModel>
  </diagram>
</mxfile>
